<?xml version="1.0" encoding="UTF-8" standalone="no"?>
<!-- Created with Inkscape (http://www.inkscape.org/) -->
<svg xmlns:svg="http://www.w3.org/2000/svg" xmlns="http://www.w3.org/2000/svg" version="1.0" width="728.68915" height="555.86859" viewBox="0 0 8.5 11" id="svg2669" xml:space="preserve">
 <defs id="defs2671">
  <style type="text/css" id="style2673"/>
 
  
  
  
  
  
  
  
  
 
   
   
  
 <style type="text/css" id="style9952"/>
  </defs>
 
<g transform="matrix(1.7817732,0,0,1.7817732,-3.2816893,-4.1778801)" id="g11888"><path d="M 8.0896804,5.708289 C 8.2224785,6.0036536 7.9892255,6.0796289 8.0128028,6.2514528 C 8.0358253,6.4192342 8.3899572,6.5671381 8.2403907,6.8948104 C 8.1048963,7.1916534 7.6612195,7.1350088 7.5928728,6.898431 C 7.5519584,6.7568076 7.4281792,6.5966917 7.2846448,6.6186586 C 6.9223752,6.6885469 2.8982615,7.5123975 1.8998502,7.7672773 C 1.704243,7.8207628 1.8616987,8.2137063 1.6144079,8.3855745 C 1.3708279,8.5548635 0.99393656,8.4040788 0.95695692,8.1492097 C 0.92011656,7.8952992 1.1641658,7.7755811 1.123665,7.6169674 C 1.0883073,7.4784964 0.9536438,7.4401161 0.95594666,7.2805814 C 0.95963216,7.0306439 1.1181752,6.8670241 1.3815067,6.8579671 C 1.7009896,6.8469788 1.6468143,7.1061463 1.7143221,7.1703747 C 1.8534809,7.2953984 6.9649203,6.3009378 7.169156,6.1425495 C 7.386093,5.9743111 7.3363216,5.6725513 7.4579846,5.593483 C 7.6445732,5.4722198 7.9985749,5.5056554 8.0896804,5.708289 z " style="fill:#000000;fill-opacity:1;fill-rule:nonzero" id="path4129"/><path d="M 6.5856369,7.2294055 C 6.8344762,7.2405679 6.7126558,6.9632917 6.9582078,6.815505 C 7.2078258,6.6652712 7.4131033,6.8339734 7.4567549,6.8930344 C 7.5726204,7.0498018 7.5935151,7.3335785 7.5069461,7.4475852 C 7.420377,7.561592 7.2518836,7.6054396 7.2111878,7.7247949 C 7.1659648,7.8574279 7.4503643,8.1544781 7.2577464,8.3918717 C 7.118611,8.5633505 6.8006999,8.5680094 6.6499305,8.3598755 C 6.5201918,8.1807741 6.7102521,7.8416468 6.4668984,7.7822248 C 6.2448687,7.7280097 2.6566938,6.8480762 1.3186358,6.6633471 C 1.064884,6.6266464 0.9396854,6.9028842 0.85740711,7.0371868 C 0.69993537,7.2942275 0.21942547,7.1583069 0.18358343,6.8454402 C 0.14704369,6.5264833 0.45390883,6.4450185 0.48583548,6.2774982 C 0.5045058,6.1795344 0.26532648,5.936608 0.38828951,5.6767862 C 0.50971325,5.420217 0.83863131,5.3546092 1.0063938,5.492885 C 1.2201548,5.6690744 1.1055831,5.9372853 1.289286,6.1269123 C 1.5006675,6.3451106 6.3127244,7.2171633 6.5856369,7.2294055 z " style="fill:#000000;fill-opacity:1;fill-rule:nonzero" id="path2975"/><path d="M 1.7463225,2.3420957 C 1.5100672,2.3420957 1.3190283,2.5319839 1.3190277,2.7682386 L 1.3190277,4.6398121 L 1.2395579,4.7342544 L 1.2395579,5.6913485 C 1.2395579,5.9340364 1.4356821,6.1301606 1.67837,6.1301606 L 6.8012986,6.1301606 C 7.0439862,6.1301596 7.2389593,5.934036 7.238959,5.6913485 L 7.238959,4.7342544 L 7.1594889,4.6398121 L 7.1594889,2.7682386 C 7.1594889,2.5319836 6.9696016,2.342096 6.7333461,2.3420957 L 1.7463225,2.3420957 z M 2.8612044,3.6942356 C 3.1129521,3.6942359 3.3172925,3.898576 3.3172925,4.1503237 C 3.3172928,4.4020711 3.1129521,4.6064118 2.8612044,4.6064118 C 2.6094567,4.6064118 2.4051163,4.4020714 2.4051163,4.1503237 C 2.405116,3.898575 2.6094567,3.6942356 2.8612044,3.6942356 z M 5.6173125,3.6942356 C 5.8690602,3.6942359 6.0734006,3.898576 6.0734006,4.1503237 C 6.0734009,4.4020711 5.8690602,4.6064118 5.6173125,4.6064118 C 5.3655641,4.6064118 5.1612244,4.4020714 5.1612244,4.1503237 C 5.1612241,3.898575 5.3655648,3.6942356 5.6173125,3.6942356 z M 3.6363239,3.7253326 L 4.842193,3.7253326 L 4.842193,4.2597388 L 3.6363239,4.2597388 L 3.6363239,3.7253326 z M 3.499267,5.5381673 C 3.5999656,5.5381669 3.6823931,5.6205944 3.6823931,5.7212937 C 3.6823931,5.8219927 3.5999663,5.9032682 3.499267,5.9032682 C 3.3985677,5.9032685 3.3172925,5.8219927 3.3172925,5.7212937 C 3.3172928,5.6205944 3.398568,5.5381673 3.499267,5.5381673 z M 4.9792499,5.5381673 C 5.0799489,5.5381673 5.1612247,5.6205944 5.1612244,5.7212937 C 5.1612244,5.8219927 5.0799489,5.9032685 4.9792499,5.9032682 C 4.8785506,5.9032682 4.7961231,5.8219927 4.7961235,5.7212937 C 4.7961235,5.6205944 4.8785506,5.5381669 4.9792499,5.5381673 z M 2.8347145,5.6360649 C 2.9354131,5.6360649 3.0178406,5.7184922 3.0178406,5.8191915 C 3.0178406,5.9198907 2.9354134,6.0011659 2.8347145,6.0011659 C 2.7340146,6.0011656 2.65274,5.9198903 2.65274,5.8191915 C 2.6527403,5.7184925 2.7340152,5.6360649 2.8347145,5.6360649 z M 5.6438024,5.6360649 C 5.7445014,5.6360649 5.8257772,5.7184925 5.8257769,5.8191915 C 5.8257769,5.9198903 5.7445014,6.0011656 5.6438024,6.0011659 C 5.5431032,6.0011659 5.4606755,5.9198907 5.460676,5.8191915 C 5.460676,5.7184922 5.5431032,5.6360649 5.6438024,5.6360649 z " style="fill:#000000;fill-opacity:1;stroke:none;stroke-width:2;stroke-linecap:butt;stroke-linejoin:round;stroke-miterlimit:4;stroke-dasharray:none;stroke-opacity:1" id="rect2689"/></g></svg>