<?xml version="1.0" encoding="iso-8859-1"?>
<!-- Generator: Adobe Illustrator 18.0.0, SVG Export Plug-In . SVG Version: 6.00 Build 0)  -->
<!DOCTYPE svg PUBLIC "-//W3C//DTD SVG 1.1//EN" "http://www.w3.org/Graphics/SVG/1.1/DTD/svg11.dtd">
<svg xmlns="http://www.w3.org/2000/svg" xmlns:xlink="http://www.w3.org/1999/xlink" version="1.1" id="Capa_1" x="0px" y="0px" viewBox="0 0 262.842 262.842" style="enable-background:new 0 0 262.842 262.842;" xml:space="preserve" width="512px" height="512px">
<g>
	<g>
		<g>
			<path d="M152.384,138.087h-17.666v-16.833h-7.884v-15H91.939l-0.024-0.021l-34.052-0.055V71.715     c0-11.323,9.209-20.531,20.535-20.531h13.208c11.321,0,20.532,9.208,20.532,20.531v8.269h38.189l-0.003-8.269     c0-32.376-26.342-58.72-58.719-58.72H78.398c-32.38,0-58.723,26.344-58.723,58.72v34.464h-6.508     C5.894,106.179,0,112.073,0,119.345v117.336c0,7.271,5.894,13.167,13.167,13.167h143.665c7.274,0,13.168-5.895,13.168-13.167     v-63.26h0.051v-17.667h-17.667V138.087z M94.04,204.069v10.5c0,4.99-4.045,9.04-9.04,9.04s-9.04-4.05-9.04-9.04v-10.5     c-3.701-2.763-6.102-7.157-6.102-12.127c0-8.36,6.777-15.142,15.142-15.142c8.366,0,15.143,6.782,15.143,15.142     C100.143,196.912,97.741,201.306,94.04,204.069z" fill="#f07800"/>
		</g>
		<g>
			<rect x="170.051" y="138.087" width="17.667" height="17.667" fill="#f07800"/>
		</g>
		<g>
			<polygon points="205.384,120.837 222.633,120.837 222.633,103.171 204.967,103.171 204.967,120.421 187.717,120.421      187.717,138.087 205.384,138.087    " fill="#f07800"/>
		</g>
		<g>
			<rect x="187.3" y="85.504" width="17.667" height="17.667" fill="#f07800"/>
		</g>
		<g>
			<rect x="152.384" y="120.421" width="17.667" height="17.667" fill="#f07800"/>
		</g>
		<g>
			<rect x="205.175" y="138.296" width="17.667" height="17.667" fill="#f07800"/>
		</g>
	</g>
	<g>
		<rect x="240.508" y="151.921" width="17.667" height="17.667" fill="#f07800"/>
	</g>
	<g>
		<rect x="222.842" y="120.421" width="17.667" height="17.667" fill="#f07800"/>
	</g>
	<g>
		<rect x="245.175" y="98.087" width="17.667" height="17.667" fill="#f07800"/>
	</g>
	<g>
		<rect x="227.842" y="65.504" width="17.667" height="17.667" fill="#f07800"/>
	</g>
</g>
<g>
</g>
<g>
</g>
<g>
</g>
<g>
</g>
<g>
</g>
<g>
</g>
<g>
</g>
<g>
</g>
<g>
</g>
<g>
</g>
<g>
</g>
<g>
</g>
<g>
</g>
<g>
</g>
<g>
</g>
</svg>
