<?xml version="1.0" encoding="UTF-8" standalone="no"?>
<!-- Created with Inkscape (http://www.inkscape.org/) -->

<svg
   xmlns:dc="http://purl.org/dc/elements/1.1/"
   xmlns:cc="http://creativecommons.org/ns#"
   xmlns:rdf="http://www.w3.org/1999/02/22-rdf-syntax-ns#"
   xmlns:svg="http://www.w3.org/2000/svg"
   xmlns="http://www.w3.org/2000/svg"
   xmlns:xlink="http://www.w3.org/1999/xlink"
   xmlns:sodipodi="http://sodipodi.sourceforge.net/DTD/sodipodi-0.dtd"
   xmlns:inkscape="http://www.inkscape.org/namespaces/inkscape"
   width="876.90393"
   height="397.4183"
   viewBox="0 0 876.90391 397.4183"
   id="svg4537"
   version="1.1"
   inkscape:version="0.91 r13725"
   sodipodi:docname="privacy_lab_robot.svg"
   inkscape:export-filename="/home/so249/Desktop/privacylab_logo/privacy_lab_robot.png"
   inkscape:export-xdpi="81.893196"
   inkscape:export-ydpi="81.893196">
  <defs
     id="defs4539">
    <linearGradient
       inkscape:collect="always"
       xlink:href="#linearGradient4453"
       id="linearGradient4459"
       x1="45.873314"
       y1="-307.87781"
       x2="162.47327"
       y2="-307.87781"
       gradientUnits="userSpaceOnUse"
       gradientTransform="matrix(2.3321928,0,0,2.3321928,-1048.9791,451.99688)" />
    <linearGradient
       inkscape:collect="always"
       id="linearGradient4453">
      <stop
         style="stop-color:#000000;stop-opacity:1;"
         offset="0"
         id="stop4455" />
      <stop
         style="stop-color:#000000;stop-opacity:0;"
         offset="1"
         id="stop4457" />
    </linearGradient>
    <linearGradient
       inkscape:collect="always"
       xlink:href="#linearGradient4453"
       id="linearGradient4473"
       x1="45.873314"
       y1="-307.87781"
       x2="162.47327"
       y2="-307.87781"
       gradientUnits="userSpaceOnUse"
       gradientTransform="matrix(1.8657545,0,0,1.8657545,113.24481,194.43811)" />
    <linearGradient
       inkscape:collect="always"
       xlink:href="#linearGradient4453"
       id="linearGradient4370"
       x1="-105.08423"
       y1="362.35941"
       x2="-105.08424"
       y2="399.94574"
       gradientUnits="userSpaceOnUse"
       gradientTransform="matrix(2.3321929,0,0,-2.3321929,-1048.9791,451.99688)" />
  </defs>
  <sodipodi:namedview
     id="base"
     pagecolor="#ffffff"
     bordercolor="#666666"
     borderopacity="1.0"
     inkscape:pageopacity="0.0"
     inkscape:pageshadow="2"
     inkscape:zoom="0.39499363"
     inkscape:cx="185.76531"
     inkscape:cy="197.14991"
     inkscape:document-units="px"
     inkscape:current-layer="layer1"
     showgrid="false"
     fit-margin-left="0"
     fit-margin-top="0"
     fit-margin-right="0"
     fit-margin-bottom="0"
     inkscape:window-width="1920"
     inkscape:window-height="1107"
     inkscape:window-x="0"
     inkscape:window-y="25"
     inkscape:window-maximized="1"
     units="px" />
  <metadata
     id="metadata4542">
    <rdf:RDF>
      <cc:Work
         rdf:about="">
        <dc:format>image/svg+xml</dc:format>
        <dc:type
           rdf:resource="http://purl.org/dc/dcmitype/StillImage" />
        <dc:title />
      </cc:Work>
    </rdf:RDF>
  </metadata>
  <g
     inkscape:label="Layer 1"
     inkscape:groupmode="layer"
     id="layer1"
     transform="translate(1601.1603,469.20408)">
    <g
       id="g4290"
       transform="translate(-82,0)">
      <path
         inkscape:connector-curvature="0"
         id="path272-7"
         d="m -1081.6256,-138.30656 c 17.2409,0 34.4818,0 51.7227,0 0,-23.6132 0,-47.22641 0,-70.83961 -17.2409,0 -34.4818,0 -51.7227,0 0,23.6132 0,47.22641 0,70.83961 z"
         style="fill:#00356b;fill-opacity:1;fill-rule:evenodd;stroke:none" />
      <path
         inkscape:connector-curvature="0"
         id="path272"
         d="m -1165.122,-138.30656 c 17.2409,0 34.4818,0 51.7227,0 0,-23.6132 0,-47.22641 0,-70.83961 -17.2409,0 -34.4818,0 -51.7227,0 0,23.6132 0,47.22641 0,70.83961 z"
         style="fill:#286dc0;fill-opacity:1;fill-rule:evenodd;stroke:none" />
    </g>
    <g
       id="g4300"
       transform="translate(-82,0)">
      <path
         d="m -1016.6576,-82.554906 -78.2102,0 c 0,0 1.9894,-30.570854 19.2173,-30.570854 17.2373,0 29.1665,0 42.418,0 13.2538,0 16.5749,30.570854 16.5749,30.570854"
         style="fill:#003e7a;fill-opacity:1;fill-rule:evenodd;stroke:none"
         id="path278-3"
         inkscape:connector-curvature="0" />
      <path
         inkscape:connector-curvature="0"
         id="path280-5"
         d="m -1094.8678,-71.785767 c 26.0702,0 52.1404,0 78.2106,0 0,-2.345866 0,-4.691733 0,-7.037599 -26.0702,0 -52.1404,0 -78.2106,0 0,2.345866 0,4.691733 0,7.037599 z"
         style="fill:#003e7a;fill-opacity:1;fill-rule:evenodd;stroke:none" />
      <path
         d="m -1100.1542,-82.554906 -78.21,0 c 0,0 1.9894,-30.570854 19.2173,-30.570854 17.2372,0 29.1663,0 42.4179,0 13.2539,0 16.5748,30.570854 16.5748,30.570854"
         style="fill:#4078bd;fill-opacity:1;fill-rule:evenodd;stroke:none"
         id="path278"
         inkscape:connector-curvature="0" />
      <path
         inkscape:connector-curvature="0"
         id="path280"
         d="m -1178.3642,-71.785767 c 26.0702,0 52.1404,0 78.2106,0 0,-2.345866 0,-4.691733 0,-7.037599 -26.0702,0 -52.1404,0 -78.2106,0 0,2.345866 0,4.691733 0,7.037599 z"
         style="fill:#4078bd;fill-opacity:1;fill-rule:evenodd;stroke:none" />
    </g>
    <path
       inkscape:connector-curvature="0"
       id="path290"
       style="fill:#28242c;fill-opacity:1;fill-rule:evenodd;stroke:none"
       d="m -1295.7027,-399.49045 c -5.1645,0 -9.3332,4.17883 -9.3332,9.3451 l 0,121.99095 c 0,5.15181 4.1687,9.33343 9.3332,9.33343 l 24.9579,0 c 5.1658,0 9.3498,-4.18162 9.3498,-9.33577 0,-5.17047 -4.184,-9.3521 -9.3498,-9.3521 l -15.6154,0 0,-112.63651 c 0,-5.16627 -4.1816,-9.3451 -9.3425,-9.3451" />
    <g
       id="g4277"
       transform="translate(-82,0)">
      <path
         inkscape:connector-curvature="0"
         id="path294"
         d="m -1095.5318,-394.41741 c -26.6472,0.34299 -55.1851,4.5996 -76.3436,22.12962 -6.8685,6.0288 -10.2129,16.30892 -6.2558,24.87256 3.4238,13.85984 6.8474,27.7197 10.2712,41.57953 48.3595,1.19345 96.7189,2.3869 145.0784,3.58035 3.926,-17.68396 7.8519,-35.36795 11.7779,-53.05191 -0.8525,-13.88809 -13.6508,-22.82335 -25.3222,-27.88473 -18.5308,-8.29833 -39.0488,-11.08941 -59.2059,-11.22542 z"
         style="fill:#00356b;fill-opacity:1;fill-rule:evenodd;stroke:none" />
      <path
         inkscape:connector-curvature="0"
         id="path304"
         d="m -1016.5473,-192.61272 c -13.6521,7.42838 -29.7571,6.53509 -44.7687,8.04932 -35.7426,1.8416 -71.8473,1.16789 -107.131,-5.19249 -11.5311,-3.98778 -15.0619,-17.15432 -17.9982,-27.69229 -5.3117,-20.71441 -7.6254,-42.43968 -5.4203,-63.746 0.3332,-9.89898 5.0594,-21.03832 15.9977,-22.54555 17.579,-4.76416 35.9676,-5.4915 54.0614,-6.58472 30.3319,-1.16577 60.8656,-0.39937 90.9478,3.7107 9.8725,2.06707 22.2394,1.90884 28.4509,11.28777 6.19556,16.15107 4.00412,33.92403 2.47837,50.72019 -2.33817,16.75988 -5.40587,34.08249 -13.97057,48.89563 -0.7894,1.10717 -1.6684,2.15269 -2.6474,3.09744 z"
         style="fill:#003e7a;fill-opacity:1;fill-rule:evenodd;stroke:none" />
      <path
         inkscape:connector-curvature="0"
         id="path306"
         d="m -1095.7882,-394.41525 c -26.5946,0.37284 -55.0677,4.66782 -76.1632,22.18584 -6.7995,6.04264 -10.1378,16.28787 -6.1798,24.81418 3.4238,13.85984 6.8474,27.7197 10.2712,41.57953 24.0239,0 48.0479,0 72.0718,0 0,-29.52652 0,-59.05303 0,-88.57955 z"
         style="fill:#286dc0;fill-opacity:1;fill-rule:evenodd;stroke:none" />
      <path
         inkscape:connector-curvature="0"
         id="path308"
         d="m -1095.7882,-310.79644 c -28.2937,0.33284 -57.1189,0.38127 -84.5295,8.26359 -10.2463,4.21251 -11.2528,16.44179 -11.9604,26.01481 -1.7849,23.53307 1.8099,47.38034 9.1325,69.74397 2.4872,9.61088 10.2607,17.11335 20.305,17.97742 22.0924,3.98151 44.6457,4.72303 67.0524,5.06133 0,-42.35371 0,-84.70741 0,-127.06112 z"
         style="fill:#4078bd;fill-opacity:1;fill-rule:evenodd;stroke:none" />
    </g>
    <g
       id="g4306"
       transform="translate(-82,0)">
      <path
         d="m -1198.9353,-252.99841 c 0,2.81029 2.2867,5.09584 5.1017,5.09584 2.807,-7.6e-4 5.0888,-2.28555 5.0888,-5.09584 l 0,-28.01431 c 0,-2.81263 -2.2827,-5.09118 -5.0888,-5.09118 -2.815,0 -5.1017,2.27855 -5.1017,5.09118 l 0,28.01431"
         style="fill:#003e7a;fill-opacity:1;fill-rule:evenodd;stroke:none"
         id="path354"
         inkscape:connector-curvature="0" />
      <path
         d="m -990.87456,-251.57111 c 0,2.80795 -2.27154,5.08885 -5.09583,5.08885 -2.80329,0 -5.08881,-2.2809 -5.08881,-5.08885 l 0,-28.0143 c 0,-2.81263 2.28319,-5.10051 5.08881,-5.10051 2.82662,-7.6e-4 5.09583,2.28788 5.09583,5.10051 l 0,28.0143"
         style="fill:#286dc0;fill-opacity:1;fill-rule:evenodd;stroke:none"
         id="path362"
         inkscape:connector-curvature="0" />
    </g>
    <g
       id="g4315"
       transform="translate(-82,0)">
      <path
         d="m -1047.5825,-323.25991 c 0,27.31831 -22.104,49.45479 -49.4061,49.45479 -27.3101,0 -49.4385,-22.13648 -49.4385,-49.45479 0,-27.27363 22.1284,-49.43448 49.4385,-49.43448 27.3022,0 49.4061,22.16085 49.4061,49.43448"
         style="fill:#d4aa00;fill-opacity:1;fill-rule:evenodd;stroke:none"
         id="path314"
         inkscape:connector-curvature="0" />
      <path
         d="m -1058.6487,-323.25991 c 0,21.16997 -17.2024,38.35204 -38.3399,38.35204 -21.2024,0 -38.3439,-17.18207 -38.3439,-38.35204 0,-21.17402 17.1415,-38.33173 38.3439,-38.33173 21.1375,0 38.3399,17.15771 38.3399,38.33173"
         style="fill:#ffffff;fill-opacity:1;fill-rule:evenodd;stroke:none"
         id="path316"
         inkscape:connector-curvature="0" />
    </g>
    <g
       id="g4310"
       transform="translate(-82,0)">
      <path
         d="m -1126.951,-246.46402 c 0,3.08315 -2.5001,5.57626 -5.5624,5.57626 -3.0737,0 -5.5762,-2.49079 -5.5762,-5.57626 0,-3.06918 2.5025,-5.56229 5.5762,-5.56229 3.0623,0 5.5624,2.49311 5.5624,5.56229"
         style="fill:#ffffff;fill-opacity:1;fill-rule:evenodd;stroke:none"
         id="path350"
         inkscape:connector-curvature="0" />
      <path
         d="m -1089.636,-246.46402 c 0,3.08315 -2.5,5.57626 -5.5622,5.57626 -3.0738,0 -5.5763,-2.49079 -5.5763,-5.57626 0,-3.06918 2.5025,-5.56229 5.5763,-5.56229 3.0622,0 5.5622,2.49311 5.5622,5.56229"
         style="fill:#ffffff;fill-opacity:1;fill-rule:evenodd;stroke:none"
         id="path350-9"
         inkscape:connector-curvature="0" />
      <path
         d="m -1052.3208,-246.46402 c 0,3.08315 -2.5001,5.57626 -5.5623,5.57626 -3.0738,0 -5.5763,-2.49079 -5.5763,-5.57626 0,-3.06918 2.5025,-5.56229 5.5763,-5.56229 3.0622,0 5.5623,2.49311 5.5623,5.56229"
         style="fill:#ffffff;fill-opacity:1;fill-rule:evenodd;stroke:none"
         id="path350-9-1"
         inkscape:connector-curvature="0" />
    </g>
    <g
       id="g4294"
       transform="translate(-82,0)">
      <path
         inkscape:connector-curvature="0"
         id="path274-5"
         d="m -1024.7317,-129.66202 c 0.07,4.28376 -4.5247,4.95067 -7.8164,4.60602 -16.8601,-0.0623 -33.7327,0.12395 -50.5849,-0.0944 -6.0519,-1.09212 -3.7064,-10.53181 2.1075,-9.11566 17.2394,0 34.4787,0 51.7181,0 2.4678,-0.0556 4.6309,2.14455 4.5757,4.60421"
         style="fill:#00356b;fill-opacity:1;fill-rule:evenodd;stroke:none" />
      <path
         inkscape:connector-curvature="0"
         id="path274-6-6"
         d="m -1024.7317,-116.3626 c 0.07,4.2838 -4.5248,4.95067 -7.8165,4.60603 -16.8601,-0.0623 -33.7326,0.12395 -50.5848,-0.0944 -6.0519,-1.09213 -3.7064,-10.53182 2.1075,-9.11566 17.2394,0 34.4787,0 51.718,0 2.4678,-0.0556 4.631,2.1445 4.5758,4.60421"
         style="fill:#00356b;fill-opacity:1;fill-rule:evenodd;stroke:none" />
      <path
         inkscape:connector-curvature="0"
         id="path274"
         d="m -1108.2282,-129.66202 c 0.07,4.28376 -4.5247,4.95067 -7.8164,4.60602 -16.8601,-0.0623 -33.7327,0.12395 -50.5849,-0.0944 -6.0519,-1.09213 -3.7064,-10.53177 2.1075,-9.11566 17.2394,0 34.4787,0 51.7181,0 2.4678,-0.0556 4.6309,2.14455 4.5757,4.60421"
         style="fill:#286dc0;fill-opacity:1;fill-rule:evenodd;stroke:none" />
      <path
         inkscape:connector-curvature="0"
         id="path274-6"
         d="m -1108.2282,-116.3626 c 0.07,4.28376 -4.5247,4.95069 -7.8164,4.60603 -16.8601,-0.0623 -33.7327,0.12395 -50.5849,-0.0944 -6.0519,-1.09213 -3.7064,-10.53177 2.1075,-9.11566 17.2394,0 34.4787,0 51.7181,0 2.4678,-0.0556 4.6309,2.14455 4.5757,4.60421"
         style="fill:#286dc0;fill-opacity:1;fill-rule:evenodd;stroke:none" />
    </g>
    <path
       id="path5"
       d="m -1321.4597,-410.45104 8.8753,7.44187 c 8.8521,-10.57223 26.715,-10.57223 35.5556,0.009 l 8.8867,-7.41744 c -6.6367,-7.93355 -16.3591,-12.47945 -26.6695,-12.47945 -10.3111,0 -20.0221,4.53369 -26.6481,12.44625 z m -16.2558,-16.58366 8.5807,7.77856 c 8.7615,-9.67776 21.265,-15.21696 34.3236,-15.21696 13.0475,0 25.551,5.5392 34.3133,15.19406 l 8.5696,-7.77856 c -10.957,-12.0744 -26.5825,-18.99249 -42.8829,-18.99249 -16.3141,-4e-4 -31.9499,6.94099 -42.9043,19.01539 z m -16.3256,-16.44851 8.4558,7.90265 c 13.0914,-14.00912 31.5995,-22.04728 50.7737,-22.04728 19.4579,0 37.4773,7.82436 50.7508,22.02399 l 8.4573,-7.91486 c -15.2637,-16.32367 -36.8466,-25.68537 -59.2085,-25.68537 -22.3736,0 -43.9556,9.37239 -59.2291,25.72087 z"
       inkscape:connector-curvature="0"
       sodipodi:nodetypes="ccccsccccsccccccsccsc"
       style="fill:url(#linearGradient4370);fill-opacity:1" />
    <g
       id="g4420"
       transform="matrix(2.3321929,0,0,-2.3321929,-1048.9791,67.651474)">
      <path
         transform="scale(1,-1)"
         style="fill:#6eb1e1"
         d="m -47.792076,-167.76169 a 7.945641,7.945641 0 0 1 -7.945641,7.94564 7.945641,7.945641 0 0 1 -7.945641,-7.94564 7.945641,7.945641 0 0 1 7.945641,-7.94564 7.945641,7.945641 0 0 1 7.945641,7.94564 z"
         id="circle7" />
      <path
         transform="scale(1,-1)"
         style="fill:#646b79"
         d="m -50.939861,-167.76169 a 4.7978554,4.7978554 0 0 1 -4.797856,4.79786 4.7978554,4.7978554 0 0 1 -4.797855,-4.79786 4.7978554,4.7978554 0 0 1 4.797855,-4.79785 4.7978554,4.7978554 0 0 1 4.797856,4.79785 z"
         id="circle9" />
      <g
         transform="matrix(0.07486706,0,0,-0.07486706,-74.802162,186.82613)"
         id="g11">
        <path
           style="fill:#fcfcfd"
           d="m 279.057,228.196 a 24.413,24.413 0 0 1 -24.413,24.413 24.413,24.413 0 0 1 -24.413,-24.413 24.413,24.413 0 0 1 24.413,-24.413 24.413,24.413 0 0 1 24.413,24.413 z"
           id="circle13" />
        <path
           id="path15"
           d="m 254.644,318.728 c 20.344,0 38.654,-9.494 50.183,-24.413 -6.781,-21.362 -26.787,-36.959 -50.183,-36.959 -23.396,0 -43.74,15.597 -50.183,36.959 11.528,14.919 29.838,24.413 50.183,24.413 z"
           style="fill:#fcfcfd"
           inkscape:connector-curvature="0" />
      </g>
    </g>
    <g
       style="font-style:normal;font-weight:normal;font-size:20.49601364px;line-height:125%;font-family:Sans;letter-spacing:0px;word-spacing:0px;fill:url(#linearGradient4459);fill-opacity:1;stroke:none;stroke-width:1px;stroke-linecap:butt;stroke-linejoin:miter;stroke-opacity:1"
       id="text5364-0">
      <path
         d="m -1059.0445,-273.23579 q -1.5612,0 -2.3518,1.54121 -0.7806,1.53119 -0.7806,4.6136 0,3.0724 0.7806,4.61361 0.7906,1.53119 2.3518,1.53119 1.5712,0 2.3519,-1.53119 0.7906,-1.54121 0.7906,-4.61361 0,-3.08241 -0.7906,-4.6136 -0.7807,-1.54121 -2.3519,-1.54121 z m 0,-1.60125 q 2.512,0 3.833,1.99156 1.3311,1.98155 1.3311,5.7645 0,3.77295 -1.3311,5.76451 -1.321,1.98154 -3.833,1.98154 -2.5119,0 -3.843,-1.98154 -1.321,-1.99156 -1.321,-5.76451 0,-3.78295 1.321,-5.7645 1.3311,-1.99156 3.843,-1.99156 z"
         style="fill:url(#linearGradient4459);fill-opacity:1"
         id="path4178" />
      <path
         d="m -1049.9674,-261.32648 3.3026,0 0,-11.39891 -3.5928,0.72057 0,-1.84144 3.5728,-0.72057 2.0216,0 0,13.24035 3.3025,0 0,1.70133 -8.6067,0 0,-1.70133 z"
         style="fill:url(#linearGradient4459);fill-opacity:1"
         id="path4180" />
      <path
         d="m -1036.9172,-261.32648 3.3026,0 0,-11.39891 -3.5928,0.72057 0,-1.84144 3.5728,-0.72057 2.0216,0 0,13.24035 3.3025,0 0,1.70133 -8.6067,0 0,-1.70133 z"
         style="fill:url(#linearGradient4459);fill-opacity:1"
         id="path4182" />
      <path
         d="m -1023.867,-261.32648 3.3026,0 0,-11.39891 -3.5928,0.72057 0,-1.84144 3.5728,-0.72057 2.0215,0 0,13.24035 3.3026,0 0,1.70133 -8.6067,0 0,-1.70133 z"
         style="fill:url(#linearGradient4459);fill-opacity:1"
         id="path4184" />
      <path
         d="m -1010.8168,-261.32648 3.3026,0 0,-11.39891 -3.5928,0.72057 0,-1.84144 3.5728,-0.72057 2.0215,0 0,13.24035 3.3026,0 0,1.70133 -8.6067,0 0,-1.70133 z"
         style="fill:url(#linearGradient4459);fill-opacity:1"
         id="path4186" />
      <path
         d="m -993.7935,-273.23579 q -1.56122,0 -2.35183,1.54121 -0.78061,1.53119 -0.78061,4.6136 0,3.0724 0.78061,4.61361 0.79061,1.53119 2.35183,1.53119 1.57123,0 2.35184,-1.53119 0.79062,-1.54121 0.79062,-4.61361 0,-3.08241 -0.79062,-4.6136 -0.78061,-1.54121 -2.35184,-1.54121 z m 0,-1.60125 q 2.51197,0 3.833,1.99156 1.33104,1.98155 1.33104,5.7645 0,3.77295 -1.33104,5.76451 -1.32103,1.98154 -3.833,1.98154 -2.51196,0 -3.843,-1.98154 -1.32103,-1.99156 -1.32103,-5.76451 0,-3.78295 1.32103,-5.7645 1.33104,-1.99156 3.843,-1.99156 z"
         style="fill:url(#linearGradient4459);fill-opacity:1"
         id="path4188" />
      <path
         d="m -980.7433,-273.23579 q -1.56122,0 -2.35184,1.54121 -0.78061,1.53119 -0.78061,4.6136 0,3.0724 0.78061,4.61361 0.79062,1.53119 2.35184,1.53119 1.57123,0 2.35184,-1.53119 0.79061,-1.54121 0.79061,-4.61361 0,-3.08241 -0.79061,-4.6136 -0.78061,-1.54121 -2.35184,-1.54121 z m 0,-1.60125 q 2.51196,0 3.83299,1.99156 1.33104,1.98155 1.33104,5.7645 0,3.77295 -1.33104,5.76451 -1.32103,1.98154 -3.83299,1.98154 -2.51196,0 -3.843,-1.98154 -1.32104,-1.99156 -1.32104,-5.76451 0,-3.78295 1.32104,-5.7645 1.33104,-1.99156 3.843,-1.99156 z"
         style="fill:url(#linearGradient4459);fill-opacity:1"
         id="path4190" />
      <path
         d="m -971.6662,-261.32648 3.30258,0 0,-11.39891 -3.59281,0.72057 0,-1.84144 3.57279,-0.72057 2.02158,0 0,13.24035 3.30258,0 0,1.70133 -8.60672,0 0,-1.70133 z"
         style="fill:url(#linearGradient4459);fill-opacity:1"
         id="path4192" />
      <path
         d="m -954.64291,-273.23579 q -1.56122,0 -2.35183,1.54121 -0.78061,1.53119 -0.78061,4.6136 0,3.0724 0.78061,4.61361 0.79061,1.53119 2.35183,1.53119 1.57123,0 2.35184,-1.53119 0.79062,-1.54121 0.79062,-4.61361 0,-3.08241 -0.79062,-4.6136 -0.78061,-1.54121 -2.35184,-1.54121 z m 0,-1.60125 q 2.51197,0 3.833,1.99156 1.33104,1.98155 1.33104,5.7645 0,3.77295 -1.33104,5.76451 -1.32103,1.98154 -3.833,1.98154 -2.51196,0 -3.843,-1.98154 -1.32103,-1.99156 -1.32103,-5.76451 0,-3.78295 1.32103,-5.7645 1.33104,-1.99156 3.843,-1.99156 z"
         style="fill:url(#linearGradient4459);fill-opacity:1"
         id="path4194" />
      <path
         d="m -945.56582,-261.32648 3.30258,0 0,-11.39891 -3.5928,0.72057 0,-1.84144 3.57279,-0.72057 2.02158,0 0,13.24035 3.30258,0 0,1.70133 -8.60673,0 0,-1.70133 z"
         style="fill:url(#linearGradient4459);fill-opacity:1"
         id="path4196" />
      <path
         d="m -932.51562,-261.32648 3.30258,0 0,-11.39891 -3.5928,0.72057 0,-1.84144 3.57279,-0.72057 2.02158,0 0,13.24035 3.30258,0 0,1.70133 -8.60673,0 0,-1.70133 z"
         style="fill:url(#linearGradient4459);fill-opacity:1"
         id="path4198" />
      <path
         d="m -915.49231,-273.23579 q -1.56122,0 -2.35184,1.54121 -0.78061,1.53119 -0.78061,4.6136 0,3.0724 0.78061,4.61361 0.79062,1.53119 2.35184,1.53119 1.57123,0 2.35184,-1.53119 0.79061,-1.54121 0.79061,-4.61361 0,-3.08241 -0.79061,-4.6136 -0.78061,-1.54121 -2.35184,-1.54121 z m 0,-1.60125 q 2.51196,0 3.83299,1.99156 1.33104,1.98155 1.33104,5.7645 0,3.77295 -1.33104,5.76451 -1.32103,1.98154 -3.83299,1.98154 -2.51196,0 -3.843,-1.98154 -1.32103,-1.99156 -1.32103,-5.76451 0,-3.78295 1.32103,-5.7645 1.33104,-1.99156 3.843,-1.99156 z"
         style="fill:url(#linearGradient4459);fill-opacity:1"
         id="path4200" />
      <path
         d="m -906.41523,-261.32648 3.30258,0 0,-11.39891 -3.59281,0.72057 0,-1.84144 3.5728,-0.72057 2.02158,0 0,13.24035 3.30258,0 0,1.70133 -8.60673,0 0,-1.70133 z"
         style="fill:url(#linearGradient4459);fill-opacity:1"
         id="path4202" />
      <path
         d="m -893.36503,-261.32648 3.30258,0 0,-11.39891 -3.5928,0.72057 0,-1.84144 3.57279,-0.72057 2.02158,0 0,13.24035 3.30258,0 0,1.70133 -8.60673,0 0,-1.70133 z"
         style="fill:url(#linearGradient4459);fill-opacity:1"
         id="path4204" />
      <path
         d="m -880.31483,-261.32648 3.30258,0 0,-11.39891 -3.5928,0.72057 0,-1.84144 3.57279,-0.72057 2.02158,0 0,13.24035 3.30258,0 0,1.70133 -8.60673,0 0,-1.70133 z"
         style="fill:url(#linearGradient4459);fill-opacity:1"
         id="path4206" />
      <path
         d="m -867.26464,-261.32648 3.30258,0 0,-11.39891 -3.59281,0.72057 0,-1.84144 3.5728,-0.72057 2.02157,0 0,13.24035 3.30259,0 0,1.70133 -8.60673,0 0,-1.70133 z"
         style="fill:url(#linearGradient4459);fill-opacity:1"
         id="path4208" />
      <path
         d="m -850.24133,-273.23579 q -1.56122,0 -2.35184,1.54121 -0.78061,1.53119 -0.78061,4.6136 0,3.0724 0.78061,4.61361 0.79062,1.53119 2.35184,1.53119 1.57122,0 2.35183,-1.53119 0.79062,-1.54121 0.79062,-4.61361 0,-3.08241 -0.79062,-4.6136 -0.78061,-1.54121 -2.35183,-1.54121 z m 0,-1.60125 q 2.51196,0 3.83299,1.99156 1.33104,1.98155 1.33104,5.7645 0,3.77295 -1.33104,5.76451 -1.32103,1.98154 -3.83299,1.98154 -2.51197,0 -3.84301,-1.98154 -1.32103,-1.99156 -1.32103,-5.76451 0,-3.78295 1.32103,-5.7645 1.33104,-1.99156 3.84301,-1.99156 z"
         style="fill:url(#linearGradient4459);fill-opacity:1"
         id="path4210" />
      <path
         d="m -841.16424,-261.32648 3.30258,0 0,-11.39891 -3.5928,0.72057 0,-1.84144 3.57279,-0.72057 2.02158,0 0,13.24035 3.30258,0 0,1.70133 -8.60673,0 0,-1.70133 z"
         style="fill:url(#linearGradient4459);fill-opacity:1"
         id="path4212" />
      <path
         d="m -828.11405,-261.32648 3.30258,0 0,-11.39891 -3.59281,0.72057 0,-1.84144 3.57279,-0.72057 2.02158,0 0,13.24035 3.30258,0 0,1.70133 -8.60672,0 0,-1.70133 z"
         style="fill:url(#linearGradient4459);fill-opacity:1"
         id="path4214" />
      <path
         d="m -815.06385,-261.32648 3.30258,0 0,-11.39891 -3.59281,0.72057 0,-1.84144 3.5728,-0.72057 2.02158,0 0,13.24035 3.30258,0 0,1.70133 -8.60673,0 0,-1.70133 z"
         style="fill:url(#linearGradient4459);fill-opacity:1"
         id="path4216" />
      <path
         d="m -798.04054,-273.23579 q -1.56122,0 -2.35184,1.54121 -0.78061,1.53119 -0.78061,4.6136 0,3.0724 0.78061,4.61361 0.79062,1.53119 2.35184,1.53119 1.57122,0 2.35183,-1.53119 0.79062,-1.54121 0.79062,-4.61361 0,-3.08241 -0.79062,-4.6136 -0.78061,-1.54121 -2.35183,-1.54121 z m 0,-1.60125 q 2.51196,0 3.83299,1.99156 1.33104,1.98155 1.33104,5.7645 0,3.77295 -1.33104,5.76451 -1.32103,1.98154 -3.83299,1.98154 -2.51197,0 -3.84301,-1.98154 -1.32103,-1.99156 -1.32103,-5.76451 0,-3.78295 1.32103,-5.7645 1.33104,-1.99156 3.84301,-1.99156 z"
         style="fill:url(#linearGradient4459);fill-opacity:1"
         id="path4218" />
      <path
         d="m -788.96345,-261.32648 3.30258,0 0,-11.39891 -3.5928,0.72057 0,-1.84144 3.57279,-0.72057 2.02158,0 0,13.24035 3.30258,0 0,1.70133 -8.60673,0 0,-1.70133 z"
         style="fill:url(#linearGradient4459);fill-opacity:1"
         id="path4220" />
      <path
         d="m -771.94014,-273.23579 q -1.56122,0 -2.35184,1.54121 -0.78061,1.53119 -0.78061,4.6136 0,3.0724 0.78061,4.61361 0.79062,1.53119 2.35184,1.53119 1.57123,0 2.35184,-1.53119 0.79061,-1.54121 0.79061,-4.61361 0,-3.08241 -0.79061,-4.6136 -0.78061,-1.54121 -2.35184,-1.54121 z m 0,-1.60125 q 2.51196,0 3.83299,1.99156 1.33104,1.98155 1.33104,5.7645 0,3.77295 -1.33104,5.76451 -1.32103,1.98154 -3.83299,1.98154 -2.51196,0 -3.843,-1.98154 -1.32104,-1.99156 -1.32104,-5.76451 0,-3.78295 1.32104,-5.7645 1.33104,-1.99156 3.843,-1.99156 z"
         style="fill:url(#linearGradient4459);fill-opacity:1"
         id="path4222" />
      <path
         d="m -762.86307,-261.32648 3.30258,0 0,-11.39891 -3.59281,0.72057 0,-1.84144 3.57279,-0.72057 2.02158,0 0,13.24035 3.30258,0 0,1.70133 -8.60672,0 0,-1.70133 z"
         style="fill:url(#linearGradient4459);fill-opacity:1"
         id="path4224" />
    </g>
  </g>
</svg>
