<?xml version="1.0" encoding="UTF-8" standalone="no"?>
<!-- Created with Inkscape (http://www.inkscape.org/) -->
<svg xmlns:svg="http://www.w3.org/2000/svg" xmlns="http://www.w3.org/2000/svg" xmlns:xlink="http://www.w3.org/1999/xlink" version="1.0" width="237" height="547" id="svg1901">
  <defs id="defs1903">
    <linearGradient id="linearGradient3362">
      <stop style="stop-color: rgb(164, 164, 164); stop-opacity: 1;" offset="0" id="stop3364"/>
      <stop style="stop-color: rgb(164, 164, 164); stop-opacity: 0;" offset="1" id="stop3366"/>
    </linearGradient>
    <linearGradient id="linearGradient3348">
      <stop style="stop-color: rgb(0, 0, 0); stop-opacity: 1;" offset="0" id="stop3350"/>
      <stop style="stop-color: rgb(72, 106, 114); stop-opacity: 1;" offset="0.38139668" id="stop3356"/>
      <stop style="stop-color: rgb(108, 159, 171); stop-opacity: 1;" offset="0.60387808" id="stop3358"/>
      <stop style="stop-color: rgb(144, 213, 229); stop-opacity: 1;" offset="1" id="stop3352"/>
    </linearGradient>
    <linearGradient x1="413.26151" y1="49.491657" x2="413.26151" y2="550.25708" id="linearGradient3354" xlink:href="#linearGradient3348" gradientUnits="userSpaceOnUse" gradientTransform="translate(-220)"/>
    <linearGradient x1="203.47221" y1="90.478996" x2="203.47221" y2="513.22278" id="linearGradient3368" xlink:href="#linearGradient3362" gradientUnits="userSpaceOnUse"/>
  </defs>
  <g transform="translate(-84.3571, -33.1479)" style="opacity: 1;" id="layer1">
    <path d="M 100.01451,90.728999 L 306.92993,90.728999 C 307.44482,153.90707 315.59084,175.33414 270.56444,234.17066 C 227.52373,292.06864 222.03103,306.91889 270.56444,369.5311 C 313.16811,421.06058 308.19471,446.67092 306.42485,512.97277 L 100.51959,512.97277 C 98.74973,446.67092 93.776332,421.06058 136.38,369.5311 C 184.91341,306.91889 179.42071,292.06864 136.38,234.17066 C 91.353594,175.33414 99.499618,153.90707 100.01451,90.728999 z " style="fill: url(#linearGradient3368) rgb(0, 0, 0); fill-opacity: 1; fill-rule: evenodd; stroke: none; stroke-width: 0.5; stroke-miterlimit: 4; stroke-dashoffset: 0pt; stroke-opacity: 1;" id="path3338"/>
    <rect width="222.32143" height="61.696423" rx="7.9464288" ry="7.9464283" x="91.678574" y="509.77289" style="opacity: 1; fill: rgb(144, 213, 229); fill-opacity: 1; fill-rule: evenodd; stroke: none; stroke-width: 0.5; stroke-miterlimit: 4; stroke-dasharray: none; stroke-dashoffset: 0pt; stroke-opacity: 1;" id="rect3326"/>
    <rect width="222.32143" height="48.839283" ry="7.9464288" x="91.678574" y="45.772911" style="opacity: 1; fill: rgb(0, 0, 0); fill-opacity: 1; fill-rule: evenodd; stroke: none; stroke-width: 0.5; stroke-miterlimit: 4; stroke-dasharray: none; stroke-dashoffset: 0pt; stroke-opacity: 1;" id="rect3324"/>
    <path d="M 299.3884,49.741657 L 106.73215,49.772907 L 106.6384,146.27291 C 106.6384,189.08123 135.74125,225.28882 175.60715,236.86666 C 180.95436,243.33723 181.36839,252.81377 179.7009,263.55416 C 178.42926,273.11492 173.61129,284.0614 182.5759,289.61666 C 191.78896,294.73069 198.6134,294.94622 198.8259,281.58541 C 199.01,275.15684 194.96319,260.8488 192.91965,250.49166 C 190.94132,241.34591 198.97866,239.19485 201.66965,246.58541 C 204.29681,254.00638 212.12432,258.92288 216.85715,247.46041 C 217.49292,243.33246 219.46785,240.69904 222.16965,238.86666 C 266.20009,230.15083 299.3884,191.97963 299.3884,146.27291 L 299.3884,49.741657 z M 224.89286,263.54076 C 224.89286,266.00505 222.89286,268.00505 220.42858,268.00505 C 217.96429,268.00505 215.96429,266.00505 215.96429,263.54076 C 215.96429,261.07648 217.96429,259.07648 220.42858,259.07648 C 222.89286,259.07648 224.89286,261.07648 224.89286,263.54076 z M 182.21428,334.07647 C 182.21428,336.54076 180.21428,338.54076 177.75,338.54076 C 175.28571,338.54076 173.28571,336.54076 173.28571,334.07647 C 173.28571,331.61219 175.28571,329.61219 177.75,329.61219 C 180.21428,329.61219 182.21428,331.61219 182.21428,334.07647 z M 212.57143,296.21934 C 213.04171,291.03841 217.79463,288.86333 217.75001,296.21934 C 217.18526,310.72766 224.41281,319.18883 229.17858,329.25505 C 233.44258,336.77999 234.5704,344.16857 227.92858,351.21934 C 220.87711,357.87418 210.54678,350.61301 209.17858,339.43362 C 207.28075,322.78694 212.22665,310.8845 212.57143,296.21934 z M 180.8259,366.89791 C 175.0682,366.71715 171.81566,378.12074 167.5759,384.96041 C 163.28415,393.57049 148.48513,400.33338 157.7634,378.17916 C 166.36364,353.32481 133.47972,381.814 126.23215,395.14791 C 126.20966,395.17805 126.1921,395.21149 126.16965,395.24166 C 114.1622,411.37276 107.04465,431.37854 107.04465,453.02291 C 107.04465,506.49791 150.44465,549.89789 203.91965,549.89791 C 257.39465,549.89791 300.79465,506.49792 300.79465,453.02291 C 300.79465,442.2238 299.00047,431.85093 295.73215,422.14791 C 295.7259,422.12935 295.73841,422.10397 295.73215,422.08541 C 290.43093,404.05555 281.04181,385.95386 270.41965,382.54523 C 262.03938,379.97978 255.0916,378.63987 254.7009,389.24166 C 256.58533,398.50069 257.49294,406.47792 251.85715,405.86666 C 245.26892,405.02118 246.42208,395.14036 245.0759,388.17916 C 244.84675,382.65405 234.4451,381.20548 233.6384,388.17916 C 233.27404,393.41726 235.62224,403.82498 236.5134,411.74166 C 238.24181,426.29579 238.29278,441.55333 218.8259,448.71041 C 191.31004,456.8863 171.82235,437.32259 183.10715,407.64791 C 188.36222,392.67173 193.92281,377.56817 185.2634,369.08541 C 183.62485,367.61065 182.1546,366.93962 180.8259,366.89791 z " style="fill: url(#linearGradient3354) rgb(0, 0, 0); fill-opacity: 1; fill-rule: evenodd; stroke: none; stroke-width: 0.5; stroke-miterlimit: 4; stroke-dashoffset: 0pt; stroke-opacity: 1;" id="path3288"/>
    <path d="M 170.97773,58.277847 C 168.18236,60.136025 169.64313,60.474155 171.4828,60.67696 C 171.25609,62.091748 169.74423,62.221378 168.19981,62.318458 C 168.44017,63.892295 172.41654,65.936455 172.36669,61.182036 C 173.22248,59.81644 175.56237,59.44024 178.4276,59.414269 C 180.87932,60.919017 183.89662,59.595852 187.0139,57.772771 C 188.13633,56.425901 191.68492,55.079031 194.71632,53.732161 C 186.94775,52.650161 179.08163,53.323893 170.97773,58.277847 z M 194.46378,54.742314 C 194.9758,53.819815 195.83859,53.072699 199.00946,53.479623 C 202.83962,55.172577 206.66979,55.972399 210.49995,53.984699 C 209.95686,56.20547 207.65607,57.392301 201.40858,56.257542 C 200.78766,55.026886 199.83211,55.469434 198.8832,55.878735 C 197.02384,56.272378 195.65305,55.688866 194.46378,54.742314 z M 214.17858,55.326477 C 213.95433,54.790763 214.88501,54.255048 216.32144,53.719334 C 213.04685,52.353389 209.45898,52.240583 205.96429,51.755049 C 211.07497,50.601567 217.64611,51.070834 224.89286,52.290763 C 225.73383,52.665053 226.62195,54.970528 222.92858,54.43362 L 217.92858,53.540763 C 218.63545,56.092872 216.51184,55.814499 214.17858,55.326477 z M 228.10715,53.630048 C 234.70492,55.502006 240.24905,56.587984 247.30358,60.05862 C 248.85102,60.817284 247.77334,64.200754 245.69644,62.737191 C 240.45835,59.403851 234.15988,56.91882 227.75001,54.522906 C 226.74763,54.266089 227.27067,53.28833 228.10715,53.630048 z M 183.55358,61.93362 C 185.27977,61.960807 187.00596,62.343153 188.73215,61.487191 C 189.52927,60.594108 190.8726,59.9493 194.26786,60.237191 C 197.63096,61.217422 200.99405,61.220865 204.35715,60.05862 C 205.46666,59.450252 206.56903,58.827609 208.37501,59.612191 C 209.35715,60.062431 210.3393,60.200985 211.32144,59.701477 C 212.81353,59.107798 214.18134,58.234468 216.58929,59.701477 C 217.97751,61.799538 220.81585,63.510903 218.91072,66.487191 C 217.04978,68.191144 214.92925,67.558773 212.83929,67.201477 C 209.37209,67.112183 201.68013,66.491531 200.69644,67.201477 C 197.56334,69.128543 197.09843,67.386832 195.69644,66.93362 L 192.92858,64.165763 C 191.64484,63.076505 189.74345,63.840178 188.01786,64.076477 C 184.95514,64.761859 184.61818,63.024347 183.55358,61.93362 z M 222.83929,61.219334 C 222.67822,58.289256 220.64862,57.850544 218.375,57.737192 C 217.13215,57.290261 214.12021,57.925587 216.94644,59.969334 C 219.14877,60.564532 221.54397,61.304388 222.83929,61.219334 z M 193.55358,68.272906 C 195.87952,69.014313 194.13881,74.321127 191.41072,73.272906 C 188.94532,70.844882 192.05261,68.795311 193.55358,68.272906 z M 222.48215,71.219334 C 220.01605,70.654331 218.46049,71.129951 217.66072,72.469334 C 217.20899,73.966746 217.79292,74.98616 220.42858,75.05862 C 222.02174,73.389441 222.55267,72.175504 222.48215,71.219334 z M 191.43332,200.83563 C 192.84029,200.48696 194.65143,198.9258 194.46378,203.36101 C 193.75037,206.25187 192.14608,208.84578 189.41301,211.06342 C 187.4563,212.06466 185.34622,212.52909 182.72075,211.18969 C 181.2095,209.53596 181.75254,208.08766 183.60464,206.77027 L 186.76136,201.97205 C 188.55738,203.74151 189.95673,201.94105 191.43332,200.83563 z M 175.90222,84.794352 C 175.54106,83.462077 180.13581,81.959954 181.33179,83.152854 C 181.37964,84.288827 177.31885,85.873979 175.90222,84.794352 z M 185.11987,81.763894 C 186.26528,80.37706 187.50502,81.380138 187.26644,82.26897 C 187.41155,83.29052 186.37394,83.974149 185.3724,84.668083 C 184.4289,85.551966 183.66522,86.43585 183.22583,87.319733 C 183.03991,90.599107 182.02415,89.729292 181.20552,89.845115 C 178.38116,88.946144 176.28575,88.029357 176.65984,87.635405 C 176.79581,86.97978 182.23158,85.778158 182.84702,84.47868 C 182.63845,83.368264 183.94607,82.548648 185.11987,81.763894 z M 289.41812,154.68428 C 288.7497,152.40484 291.13944,151.7271 291.81723,154.24234 C 292.54907,155.92593 292.3269,157.60951 292.44857,159.2931 C 291.94867,161.00325 289.65499,162.41264 289.79692,159.35624 C 289.9998,157.74406 290.20133,156.13211 289.41812,154.68428 z M 286.07199,173.75091 C 284.16753,176.26056 282.48186,178.8796 279.94794,181.07452 C 277.65965,183.78744 278.04442,186.1565 279.25346,187.70365 C 281.15932,188.63799 282.9044,185.54829 284.49362,182.21094 C 285.86501,179.45595 286.86663,176.67252 286.07199,173.75091 z M 276.34927,192.18619 C 277.2344,191.32954 278.28834,191.87558 277.04375,193.19635 L 274.64464,195.27979 C 273.86966,196.11974 272.41084,194.77624 273.69762,193.89083 C 274.80447,193.69423 275.7461,193.22226 276.34927,192.18619 z M 270.22522,183.34736 C 269.38886,182.14719 264.74254,182.20905 267.32103,185.87274 C 268.77725,188.04105 270.08305,190.18429 270.54089,192.1862 C 270.91981,195.46865 272.41605,193.16447 273.57135,192.565 C 275.95258,189.3375 272.84397,186.69701 270.22522,183.34736 z M 292.48215,122.02291 C 293.97643,117.84987 291.34741,113.73149 289.98215,109.96933 C 289.67904,112.16824 289.30879,114.17917 290.16072,119.61219 C 290.04027,120.21632 290.37325,121.04716 290.71877,121.88427 C 290.80454,122.96822 291.08959,123.85289 291.41072,124.70148 C 291.18034,126.38247 291.46597,127.03146 291.94644,127.29076 C 293.14858,126.36675 291.11444,123.46736 292.48215,122.02291 z M 186.23215,125.05862 C 186.5104,123.75294 186.12792,122.31208 184.98215,122.91576 C 184.25118,123.98984 184.78123,124.78995 186.23215,125.05862 z M 249.13828,178.99108 C 251.04891,180.36929 251.56081,183.33767 248.12813,185.052 C 246.95778,185.00469 247.26421,178.64772 249.13828,178.99108 z M 210.49995,85.173159 C 209.33146,84.859478 206.51694,86.457999 204.69157,86.43585 C 203.05678,86.52766 200.62602,89.600381 198.37812,91.612881 C 196.8389,92.788236 195.74875,92.335824 195.22139,91.486612 L 193.9587,89.466307 L 191.43332,91.234074 C 189.42439,92.505541 190.18761,92.984965 191.68586,93.254379 C 194.02417,94.552924 195.08991,95.427277 196.48408,96.411106 C 197.65141,96.455817 198.89665,96.188926 200.39842,94.895877 C 202.23143,93.991371 203.30773,92.935522 204.31276,91.86542 C 201.01918,89.524752 205.50257,88.65976 207.8483,87.824809 C 209.43491,86.940926 209.87907,86.057042 210.49995,85.173159 z M 219.90699,117.93998 C 216.43312,117.95214 214.42892,119.05294 215.48758,122.42253 C 216.27662,123.89379 216.78197,125.41662 215.74012,127.22076 C 214.66294,129.02214 213.31824,130.87005 215.99265,132.01898 C 217.86995,132.99524 220.11916,135.13372 220.72774,132.14525 C 221.49899,130.31685 220.06287,127.81502 220.85401,127.09449 C 221.33608,126.04013 221.55621,125.01487 220.53834,124.12717 C 217.62928,122.18321 219.05526,120.96177 222.17984,120.02342 C 224.65899,117.81845 222.37489,117.83633 219.90699,117.93998 z M 193.32736,138.83752 C 193.20109,135.47035 190.40212,135.78601 190.10749,138.96379 C 190.1103,141.27872 189.51005,143.59365 190.80197,145.90858 C 191.85816,146.66505 191.14378,149.10703 190.86511,152.03264 C 190.81055,154.08606 190.9732,156.30175 192.25407,158.40922 C 193.87281,161.87528 195.45361,161.95628 196.73662,160.05072 C 197.18779,158.46105 194.28746,153.37052 194.33751,151.08562 C 193.75811,146.89891 192.80397,142.5516 193.32736,138.83752 z M 253.82144,67.915763 C 252.72723,64.725566 253.05197,63.74263 256.23215,67.201477 C 259.00001,70.677626 263.37501,72.2515 266.94644,77.112191 C 269.1772,78.834921 270.79522,79.606172 273.91072,83.540763 L 277.57144,89.344334 C 274.72633,87.397553 272.29191,84.355598 270.16072,80.505049 C 268.42406,79.812148 268.84254,80.843355 269.44644,82.022906 C 271.32322,84.568363 272.74701,88.170765 273.91072,92.380049 C 274.28066,93.753263 275.13136,94.164949 275.96429,94.612191 C 277.58783,94.402106 279.21559,94.145567 280.60715,96.487191 C 281.58984,98.957429 285.64611,101.42767 282.39286,103.89791 C 283.94388,106.77694 286.45411,108.13724 285.33929,115.23719 C 287.581,119.67746 291.39369,125.06031 288.01786,126.13005 C 286.31545,123.8025 284.66265,121.77258 283.19644,120.86219 C 281.58752,120.72635 280.6864,125.45155 283.46429,125.32648 C 284.99744,124.22419 285.67993,125.39034 285.78572,128.09433 L 287.03572,133.27291 C 290.51909,144.38934 285.75874,150.3813 280.60715,156.13005 C 278.46137,158.67542 278.77243,160.60659 280.42858,162.20148 C 283.92003,168.74076 280.70879,171.60438 276.94644,174.16577 C 276.13588,174.22484 272.73071,169.08559 272.48215,173.45148 C 273.06755,177.14196 274.35579,180.83243 273.64286,184.52291 C 272.66422,184.90807 271.24991,181.80787 269.80358,178.45148 C 269.10179,176.83648 269.13794,175.81182 269.62501,175.14791 C 271.66243,173.76858 271.4199,170.93838 270.87501,167.91577 C 270.08992,166.2071 269.55478,166.748 269.00001,167.11219 C 268.08631,167.57303 266.7041,169.36133 267.12501,166.04077 C 267.23713,162.91046 265.46514,157.31599 261.67858,160.50505 C 258.71012,163.51294 256.60679,166.7371 252.75001,169.52291 C 250.05286,171.59695 248.18596,174.08612 247.39286,177.11219 C 246.19172,181.89767 242.99455,181.48472 242.75001,177.64791 C 242.63902,174.90579 241.44992,172.70272 240.42858,170.41577 C 237.90211,167.94222 239.16652,165.69167 240.60715,163.45148 C 242.63978,158.55274 239.99931,159.73177 239.00001,160.95148 C 237.07281,163.61628 234.59025,159.8705 234.26786,158.45148 C 233.64185,153.85116 230.90675,155.22663 229.00001,154.25505 L 222.57144,152.64791 C 220.86683,150.96669 219.28013,148.63699 217.12501,149.43362 C 215.65144,149.87828 214.2185,150.18479 213.91072,146.66577 C 210.04619,139.83228 209.84552,142.5248 209.44644,144.70148 C 209.82215,147.29077 209.80745,149.88005 212.92858,152.46934 C 214.80208,154.09727 216.35119,153.77882 217.75001,152.55862 C 218.77152,150.84487 219.52596,151.26772 220.07144,153.36219 C 220.22402,154.18287 220.36516,155.00583 221.67858,155.59434 C 224.3557,158.20656 220.80638,162.0455 218.37501,162.91577 C 209.86604,167.60835 204.26102,168.12649 199.53572,167.38005 C 196.97765,167.39384 197.51785,163.94553 195.96429,164.61219 C 194.24925,166.85364 194.80286,167.96077 196.41072,168.54077 L 206.50001,171.39791 C 202.60059,176.26281 199.93135,181.90467 191.76786,184.07648 C 186.63684,185.13275 180.99943,185.83845 181.85715,191.04077 C 182.22174,193.92767 181.50146,196.81458 180.69643,199.70148 C 180.47665,202.7687 175.99007,202.57309 171.85715,202.64791 C 170.52001,207.58242 166.70924,212.50039 159,210.05862 C 153.46866,208.09269 151.31613,204.85971 149.53572,201.48719 C 148.58192,197.50477 146.47372,193.29146 144.35715,189.07648 C 142.5429,186.26092 143.05416,183.29033 144.80358,180.23719 C 147.37465,173.73526 144.86776,160.65147 143.73215,159.34434 C 147.10357,157.48697 146.63197,154.89055 143.82143,151.84434 C 142.42128,142.24339 135.46942,145.02702 131.23215,141.75505 C 131.17398,138.94854 131.91529,135.91361 130.33929,133.54077 C 128.73642,126.8208 129.62099,121.73061 133.375,116.39791 C 137.03003,108.94211 142.24975,105.69896 149,106.57648 C 151.39333,103.41765 154.17741,101.0704 159.625,104.25505 C 161.67206,107.18474 165.21447,107.12373 168.375,107.82648 C 170.13812,107.61219 173.24935,111.26059 170.69643,114.16576 C 170.03986,117.07882 169.74569,119.96923 172.83929,122.64791 C 174.37376,124.33743 176.09696,125.27198 178.10715,125.05862 C 180.4033,123.95824 182.26727,124.50017 183.375,127.91576 L 190.87501,133.00505 C 193.41071,135.38475 194.45316,132.09013 195.87501,130.23719 C 192.00198,131.34201 193.07719,124.69495 196.58929,128.98719 C 198.66485,129.47571 199.11845,126.9446 197.66072,126.48719 C 193.68254,125.80075 190.14218,124.81772 189.80358,121.66576 C 190.01646,117.83787 192.62761,118.27357 194.89286,118.09433 C 196.97619,117.83482 200.57738,118.31604 201.14286,119.16576 C 205.16856,123.33115 209.42858,123.93926 207.48215,120.50505 C 206.3019,118.46686 204.38985,116.1472 206.14286,115.23719 C 209.16644,114.58243 207.87343,113.92767 205.96429,113.27291 C 204.84051,113.20549 203.87878,113.40817 203.46429,114.52291 C 202.47339,116.67812 201.72381,115.21342 200.96429,113.89791 C 198.88883,110.69643 197.62537,112.90824 196.23215,114.25505 C 194.29763,116.1602 192.89882,118.58825 190.42858,116.21933 C 188.62919,116.16463 187.10926,117.22776 185.78572,119.07648 C 184.95467,121.88544 183.90402,120.74167 182.83929,119.34433 C 181.63374,117.13152 182.8987,115.16575 184,113.18362 C 186.04458,110.15769 183.91467,107.72812 182.83929,105.14791 C 181.74318,103.36508 180.91295,102.51284 181.23215,105.68362 C 182.08868,108.13591 183.40011,110.65319 181.05358,112.64791 C 179.22079,114.33397 177.56013,114.64311 175.96429,114.43362 C 173.95647,112.55483 175.65894,112.49325 177.21429,112.64791 C 179.62119,114.26641 179.54516,110.54788 179.26786,108.71933 C 178.31232,106.88233 178.31489,104.80579 178.28572,102.73719 C 177.10431,101.19735 173.33545,103.59068 167.66072,102.11219 C 165.8569,105.1954 163.83725,105.83711 159.26786,101.75505 C 159.04852,99.063456 157.72593,95.593094 161.32143,95.594334 C 163.50381,94.860143 164.78613,93.765928 165.78572,92.55862 L 168.64286,95.05862 C 170.4881,97.475126 172.33334,95.456653 174.17858,93.719334 L 173.91072,90.237191 C 179.24198,91.690313 184.54605,93.388301 190.33929,90.68362 L 193.46429,88.80862 C 190.90275,86.284349 192.07365,84.190743 195.69644,82.380049 C 199.90135,82.992403 204.2001,83.135516 208.64286,82.55862 C 211.7355,82.096748 214.93138,81.067057 217.57144,83.094334 C 220.50411,86.947218 221.03719,88.526801 219.44644,88.094334 C 213.08635,85.692551 215.47765,91.975959 218.82144,90.237191 C 219.82295,89.490493 221.82175,90.140014 224.00001,91.040763 C 226.03669,91.847532 228.34288,90.228725 230.60715,88.987191 C 231.88342,87.271957 234.11894,88.674296 236.32144,89.969334 C 235.57375,87.908745 235.29909,85.900713 236.67858,84.076477 L 239.00001,88.451477 C 238.52646,85.569569 239.95289,86.276497 241.58929,87.380049 C 244.25669,86.963997 241.5317,82.500706 243.10715,81.397906 C 244.67823,80.061651 246.5367,79.491781 248.82144,80.05862 C 250.27977,80.915696 251.73811,81.144778 253.19644,79.165763 C 256.46623,78.767769 257.12654,77.271045 255.87501,74.969334 C 255.28892,73.818929 256.93592,71.016261 256.32144,70.415763 L 253.82144,67.915763 z " style="fill: rgb(108, 152, 163); fill-opacity: 1; fill-rule: evenodd; stroke: none; stroke-width: 0.3; stroke-miterlimit: 4; stroke-dasharray: none; stroke-dashoffset: 0pt; stroke-opacity: 1;" id="path3191"/>
    <path d="M 180.8259,366.89791 C 179.05141,366.8422 177.50798,367.88193 176.10715,369.55416 C 176.82395,369.47283 177.5921,369.43666 178.41965,369.42916 C 180.3408,370.60828 182.6217,370.04025 185.0134,368.86666 C 183.48076,367.55363 182.08264,366.93736 180.8259,366.89791 z M 183.54465,371.92916 C 184.60925,373.01989 184.95069,374.7708 188.0134,374.08541 C 188.17765,374.06292 188.34665,374.02166 188.5134,373.99166 C 188.22807,373.27914 187.87907,372.5897 187.48215,371.92916 C 186.17761,372.19071 184.84918,371.94971 183.54465,371.92916 z M 260.23215,380.83541 C 258.28204,381.11646 256.75114,382.07433 255.79465,384.05416 C 255.76195,384.40707 255.76495,384.7181 255.8884,384.96041 C 256.90445,386.82906 256.60958,388.15383 254.73215,388.80416 C 254.7235,388.95601 254.70669,389.08461 254.7009,389.24166 C 256.58533,398.50069 257.49294,406.47792 251.85715,405.86666 C 245.85901,405.09691 246.28119,396.84321 245.3884,390.11666 C 244.5665,390.37551 243.80389,390.80531 243.10715,391.39791 C 241.5317,392.50071 244.2433,396.95061 241.5759,397.36666 C 239.9395,396.26311 238.53986,395.57851 239.0134,398.46041 L 236.66965,394.08541 C 235.29016,395.90964 235.57821,397.89983 236.3259,399.96041 C 235.75308,399.6236 235.16698,399.28626 234.60715,398.99166 C 235.25925,403.22954 236.06886,407.7926 236.5134,411.74166 C 238.24181,426.29579 238.29278,441.55333 218.8259,448.71041 C 208.79806,451.69002 199.83907,450.99602 193.04465,447.46041 C 193.19387,447.82318 193.30454,448.2659 193.3259,448.83541 C 192.80251,452.54949 193.74649,456.8987 194.3259,461.08541 C 194.27585,463.37031 197.18331,468.4645 196.73215,470.05416 C 195.44914,471.95972 193.88215,471.86396 192.2634,468.39791 C 190.98253,466.29044 190.80259,464.07633 190.85715,462.02291 C 191.13582,459.0973 191.85084,456.65437 190.79465,455.89791 C 189.50273,453.58298 190.10997,451.27534 190.10715,448.96041 C 190.23206,447.61323 190.82026,446.77878 191.4509,446.52291 C 187.24987,443.92047 184.01771,440.1473 182.04465,435.42916 C 180.99259,434.3278 179.6427,434.31829 178.10715,435.05416 C 176.09696,435.26752 174.36037,434.33743 172.8259,432.64791 C 169.7323,429.96923 170.04432,427.09222 170.7009,424.17916 C 173.25382,421.27399 170.15152,417.62113 168.3884,417.83541 C 165.22787,417.13266 161.68546,417.17135 159.6384,414.24166 C 154.19081,411.05701 151.40673,413.42659 149.0134,416.58541 C 142.26315,415.70789 137.04343,418.94211 133.3884,426.39791 C 129.63439,431.73061 128.72303,436.8342 130.3259,443.55416 C 131.9019,445.927 131.17398,448.93515 131.23215,451.74166 C 135.46942,455.01363 142.42574,452.23445 143.8259,461.83541 C 146.63644,464.88162 147.10357,467.47803 143.73215,469.33541 C 144.86776,470.64254 147.36571,483.73972 144.79465,490.24166 C 143.04523,493.2948 142.5429,496.26986 144.35715,499.08541 C 146.47372,503.30039 148.59086,507.50923 149.54465,511.49166 C 151.32506,514.86418 153.48206,518.08824 159.0134,520.05416 C 166.72264,522.49593 170.52001,517.58242 171.85715,512.64791 C 175.99007,512.57309 180.48111,512.77764 180.7009,509.71041 C 181.50593,506.82351 182.22174,503.94107 181.85715,501.05416 C 180.99943,495.85184 186.63239,495.14169 191.7634,494.08541 C 199.92689,491.9136 202.61399,486.26281 206.5134,481.39791 L 196.41965,478.55416 C 194.81179,477.97416 194.23586,476.8581 195.9509,474.61666 C 197.50446,473.95 196.98659,477.38045 199.54465,477.36666 C 204.26995,478.1131 209.87944,477.62175 218.3884,472.92916 C 220.81977,472.05889 224.34676,468.19762 221.66965,465.58541 C 220.35623,464.9969 220.22848,464.18733 220.0759,463.36666 C 219.53042,461.27219 218.78492,460.84042 217.7634,462.55416 C 216.36458,463.77436 214.79314,464.08833 212.91965,462.46041 C 209.79852,459.87112 209.82661,457.29971 209.4509,454.71041 C 209.84998,452.53373 210.05513,449.84568 213.91965,456.67916 C 214.22743,460.19818 215.66484,459.87383 217.1384,459.42916 C 219.29352,458.63253 220.87129,460.96669 222.5759,462.64791 L 229.0134,464.24166 C 230.92014,465.21324 233.6374,463.8601 234.2634,468.46041 C 234.58579,469.87943 237.08621,473.62522 239.0134,470.96041 C 240.0127,469.7407 242.63978,468.56168 240.60715,473.46041 C 239.16652,475.7006 237.89317,477.95562 240.41965,480.42916 C 241.44099,482.71611 242.65242,484.90579 242.7634,487.64791 C 243.00794,491.48472 246.18727,491.90213 247.3884,487.11666 C 248.1815,484.09059 250.06626,481.59695 252.7634,479.52291 C 256.62018,476.7371 258.70118,473.49955 261.66965,470.49166 C 265.45621,467.3026 267.25053,472.92386 267.1384,476.05416 C 266.71749,479.37472 268.09971,477.57749 269.0134,477.11666 C 269.56817,476.75247 270.10332,476.2205 270.8884,477.92916 C 271.43329,480.95177 271.67583,483.76858 269.6384,485.14791 C 269.15133,485.81182 269.09285,486.84542 269.79465,488.46041 C 271.24098,491.8168 272.65977,494.90807 273.6384,494.52291 C 274.35133,490.83243 273.06755,487.1509 272.48215,483.46041 C 272.73071,479.09452 276.14034,484.23824 276.9509,484.17916 C 280.71325,481.61777 283.91109,478.7497 280.41965,472.21041 C 278.7635,470.61552 278.46137,468.66203 280.60715,466.11666 C 285.75874,460.36791 290.52803,454.38934 287.04465,443.27291 L 285.79465,438.08541 C 285.68886,435.38142 284.98405,434.23313 283.4509,435.33541 C 280.67301,435.46048 281.59198,430.73081 283.2009,430.86666 C 284.66711,431.77705 286.311,433.78911 288.0134,436.11666 C 291.38923,435.04692 287.56761,429.68192 285.3259,425.24166 C 286.44072,418.14171 283.93943,416.77694 282.3884,413.89791 C 285.64165,411.42767 281.58984,408.96189 280.60715,406.49166 C 279.21559,404.15004 277.57444,404.40657 275.9509,404.61666 C 275.11797,404.16942 274.2896,403.73987 273.91965,402.36666 C 272.75594,398.15738 271.32768,394.56836 269.4509,392.02291 C 268.847,390.84336 268.433,389.79876 270.16965,390.49166 C 272.30084,394.34221 274.73079,397.38864 277.5759,399.33541 L 273.91965,393.55416 C 270.80415,389.61957 269.18166,388.83938 266.9509,387.11666 C 264.8264,384.22523 262.41791,382.49299 260.23215,380.83541 z M 186.35715,391.08541 C 185.98402,391.06537 185.53668,391.25284 185.10715,391.77291 C 183.93335,392.55767 182.64858,393.38123 182.85715,394.49166 C 182.24171,395.79114 176.80561,396.9923 176.66965,397.64791 C 176.29556,398.04186 178.37655,398.93644 181.2009,399.83541 C 182.01953,399.71958 183.04623,400.58355 183.23215,397.30416 C 183.67154,396.42028 184.41364,395.56305 185.35715,394.67916 C 186.35869,393.98523 187.4085,393.29446 187.2634,392.27291 C 187.41251,391.71739 186.97903,391.11882 186.35715,391.08541 z M 179.91965,392.71041 C 178.13975,392.69208 175.61753,393.80495 175.8884,394.80416 C 177.30503,395.88379 181.37375,394.28389 181.3259,393.14791 C 181.02691,392.84968 180.51295,392.71652 179.91965,392.71041 z M 173.91965,400.24166 L 174.16965,403.71041 C 172.32441,405.44773 170.48365,407.47068 168.6384,405.05416 L 165.79465,402.55416 C 164.79506,403.76147 163.50827,404.85123 161.3259,405.58541 C 157.7304,405.58417 159.04407,409.05007 159.2634,411.74166 C 163.83279,415.82372 165.86584,415.19986 167.66965,412.11666 C 173.34438,413.59515 177.11325,411.20181 178.29465,412.74166 C 178.32382,414.81026 178.30787,416.87342 179.2634,418.71041 C 179.5407,420.53896 179.6078,424.26641 177.2009,422.64791 C 175.64555,422.49325 173.94308,422.55038 175.9509,424.42916 C 177.19561,424.59256 178.48265,424.42905 179.85715,423.55416 C 179.90697,418.7086 180.93013,413.37262 183.10715,407.64791 C 183.75962,405.78847 184.41056,403.93586 185.04465,402.08541 C 181.23732,402.36514 177.5849,401.24067 173.91965,400.24166 z M 289.98215,419.96041 C 289.67904,422.15933 289.31772,424.18364 290.16965,429.61666 C 290.04921,430.22078 290.38663,431.0608 290.73215,431.89791 C 290.81791,432.98186 291.09852,433.86182 291.41965,434.71041 C 291.18928,436.39141 291.47043,437.04486 291.9509,437.30416 C 293.15304,436.38015 291.11444,433.46736 292.48215,432.02291 C 293.97643,427.84987 291.34741,423.72257 289.98215,419.96041 z M 290.35715,462.64791 C 289.64687,462.63331 289.04366,463.39697 289.41965,464.67916 C 290.20286,466.12699 289.99754,467.75447 289.79465,469.36666 C 289.65272,472.42306 291.95099,471.0143 292.4509,469.30416 C 292.32923,467.62057 292.55774,465.92526 291.8259,464.24166 C 291.52937,463.14124 290.90959,462.65927 290.35715,462.64791 z M 286.0759,483.74166 C 284.17144,486.25132 282.48482,488.89049 279.9509,491.08541 C 277.66261,493.79834 278.05436,496.16326 279.2634,497.71041 C 281.16927,498.64474 282.89293,495.54776 284.48215,492.21041 C 285.85354,489.45543 286.87054,486.66327 286.0759,483.74166 z M 248.79465,488.99166 C 247.22108,489.40731 247.04118,495.00982 248.1384,495.05416 C 251.57108,493.33983 251.04904,490.36987 249.1384,488.99166 C 249.02127,488.9702 248.89955,488.96395 248.79465,488.99166 z M 268.2634,492.64791 C 266.92461,492.69502 265.71434,493.57685 267.3259,495.86666 C 268.78211,498.03498 270.08681,500.17725 270.54465,502.17916 C 270.92357,505.4616 272.4206,503.15363 273.5759,502.55416 C 275.95713,499.32667 272.8509,496.68506 270.23215,493.33541 C 269.91852,492.88534 269.06667,492.61964 268.2634,492.64791 z M 277.29465,501.77291 C 277.04536,501.73276 276.68907,501.85792 276.35715,502.17916 C 275.75398,503.21523 274.80774,503.70131 273.7009,503.89791 C 272.41412,504.78332 273.86341,506.11285 274.6384,505.27291 L 277.04465,503.21041 C 277.82252,502.38493 277.71013,501.83983 277.29465,501.77291 z M 193.04465,510.30416 C 192.53008,510.39577 191.94726,510.70466 191.41965,510.83541 C 189.94306,511.94083 188.55943,513.72986 186.7634,511.96041 L 183.60715,516.77291 C 181.75505,518.0903 181.22089,519.52543 182.73215,521.17916 C 185.35762,522.51856 187.46293,522.05539 189.41965,521.05416 C 192.15272,518.83652 193.73749,516.25752 194.4509,513.36666 C 194.56818,510.59465 193.90226,510.15148 193.04465,510.30416 z " style="fill: rgb(203, 226, 232); fill-opacity: 1; fill-rule: evenodd; stroke: none; stroke-width: 0.3; stroke-miterlimit: 4; stroke-dasharray: none; stroke-dashoffset: 0pt; stroke-opacity: 1;" id="path3329"/>
    <path d="M 127.2191,533.87513 L 124.45582,540.15869 C 124.19511,540.76775 123.96049,541.07227 123.75196,541.07226 C 123.64766,541.07227 123.44781,540.73062 123.15239,540.04728 L 120.28483,533.63003 C 120.21529,533.46666 120.18053,533.30326 120.18055,533.13982 C 120.18053,532.36741 120.68453,531.98119 121.69254,531.98115 L 123.375,531.98115 L 123.375,531.20128 L 111.99107,531.20128 L 111.05358,531.20128 L 96.84909,531.20128 L 97.08371,532.40451 C 99.77747,532.40455 101.41111,533.05073 101.98461,534.34305 L 114.49758,562.79732 L 116.94804,562.79732 L 123.07418,549.22751 L 129.0439,562.79732 L 131.57257,562.79732 L 144.05946,534.47675 C 144.33749,533.85288 144.91099,533.28097 145.78,532.76103 C 146.66628,532.24115 147.4918,531.98119 148.25652,531.98115 L 148.7779,531.20128 M 127.2191,533.87513 C 127.27121,533.72662 127.29728,533.56322 127.29731,533.38492 C 127.29728,532.44911 126.84542,531.98119 125.94174,531.98115 L 124.8259,531.98115 L 124.82591,531.20128 L 134.10123,531.20128 L 133.81447,531.84747 C 131.83323,531.84749 130.41682,532.79819 129.56528,534.69957 L 125.15967,544.57055 L 130.37341,556.42463 C 130.58192,556.91484 130.80786,557.15994 131.05119,557.15994 C 131.31185,557.15994 131.53778,556.95198 131.72898,556.53604 L 141.63508,533.83057 C 141.75669,533.54836 141.81751,533.31068 141.81756,533.11754 C 141.81751,532.64222 141.48731,532.34513 140.82695,532.22625 C 140.53147,532.16687 139.87105,532.13716 138.84572,532.13713 C 138.68928,532.13716 138.28087,532.12231 137.6205,532.09257 C 137.08171,532.04803 136.68199,532.03318 136.42134,532.048 L 136.21279,531.20128 L 148.7779,531.20128 M 121.58827,546.24171 C 121.58824,545.8555 121.42314,545.30588 121.09295,544.59283 L 116.27025,533.71916 C 115.94003,532.96159 115.06239,532.47881 113.63732,532.27082 C 113.2948,532.21595 112.73146,532.17797 111.9473,532.15688 C 111.69419,532.15007 111.41806,532.14502 111.11893,532.14174 C 110.84006,532.13867 110.54119,532.13714 110.22232,532.13713 C 107.38952,532.13716 105.97312,532.67935 105.97313,533.76372 C 105.97312,534.00142 106.03395,534.25396 106.15561,534.52131 L 115.85315,556.66973 C 116.13121,557.29364 116.35713,557.60559 116.53094,557.60558 C 116.70471,557.60559 116.92195,557.3085 117.18265,556.71429 L 121.35365,547.22212 C 121.51003,546.86562 121.58824,546.53882 121.58827,546.24171 M 150.68109,531.06557 C 151.32137,531.0656 151.86257,531.28416 152.30468,531.72123 C 152.76202,532.1438 152.99069,532.66105 152.9907,533.27297 C 152.99069,533.88495 152.76202,534.40948 152.30468,534.84656 C 151.86257,535.28369 151.32137,535.50225 150.68109,535.50222 C 150.0408,535.50225 149.49198,535.28369 149.03463,534.84656 C 148.57728,534.40948 148.3486,533.88495 148.34861,533.27297 C 148.3486,532.66105 148.56966,532.1438 149.01176,531.72123 C 149.46911,531.28416 150.02555,531.0656 150.68109,531.06557 M 152.57909,541.53432 L 152.57909,557.61992 C 152.57908,558.87297 152.67055,559.71076 152.85349,560.13329 C 153.05168,560.54126 153.33371,560.84724 153.6996,561.05122 C 154.08071,561.25521 154.76673,561.35721 155.75766,561.35721 L 155.75766,562.144 L 145.58165,562.144 L 145.58165,561.35721 C 146.60306,561.35721 147.28908,561.26249 147.63972,561.07308 C 147.99034,560.88366 148.26475,560.57041 148.46295,560.13329 C 148.67638,559.69619 148.78308,558.85839 148.78309,557.61992 L 148.78309,549.90495 C 148.78308,547.734 148.71449,546.32796 148.57729,545.68686 C 148.47056,545.22062 148.30287,544.90008 148.0742,544.72521 C 147.84552,544.53582 147.533,544.44112 147.13664,544.4411 C 146.70978,544.44112 146.19145,544.55039 145.58165,544.76893 L 145.26151,543.98213 L 151.57292,541.53432 L 152.57909,541.53432 M 164.53877,531.06557 L 164.53877,550.99773 L 169.86689,546.34252 C 170.995,545.35176 171.65053,544.72523 171.83349,544.46296 C 171.95542,544.28813 172.01641,544.11328 172.01642,543.93842 C 172.01641,543.64703 171.88683,543.39934 171.62768,543.19533 C 171.38374,542.9768 170.97213,542.85295 170.39284,542.8238 L 170.39284,542.12442 L 179.49408,542.12442 L 179.49408,542.8238 C 178.24397,542.85295 177.19969,543.03508 176.36124,543.37018 C 175.538,543.70532 174.63092,544.30269 173.64001,545.16233 L 168.26616,549.90495 L 173.64001,556.39602 C 175.13401,558.18817 176.14017,559.32465 176.65852,559.80547 C 177.39026,560.49027 178.03055,560.93467 178.57939,561.13865 C 178.96049,561.28435 179.62364,561.35721 180.56885,561.35721 L 180.56885,562.144 L 170.39284,562.144 L 170.39284,561.35721 C 170.97213,561.34263 171.36088,561.26249 171.55907,561.11679 C 171.77249,560.95652 171.87921,560.73796 171.87922,560.46113 C 171.87921,560.12602 171.57431,559.58691 170.96452,558.84383 L 164.53877,550.99773 L 164.53877,557.64177 C 164.53876,558.93854 164.63023,559.7909 164.81317,560.19886 C 165.01136,560.60683 165.28576,560.89824 165.6364,561.07308 C 165.98703,561.24793 166.74928,561.34263 167.92315,561.35721 L 167.92315,562.144 L 157.26692,562.144 L 157.26692,561.35721 C 158.33406,561.35721 159.13442,561.23335 159.668,560.98566 C 159.98814,560.82539 160.23206,560.57769 160.39976,560.24257 C 160.62842,559.76176 160.74276,558.93125 160.74277,557.75105 L 160.74277,539.52362 C 160.74276,537.20697 160.68941,535.79366 160.5827,535.28368 C 160.47598,534.75917 160.30066,534.40219 160.05674,534.21275 C 159.81282,534.0088 159.49268,533.9068 159.09631,533.90677 C 158.77616,533.9068 158.29595,534.03066 157.65566,534.27832 L 157.26692,533.51338 L 163.48686,531.06557 L 164.53877,531.06557 M 187.08607,531.06557 C 187.72636,531.0656 188.26755,531.28416 188.70967,531.72123 C 189.167,532.1438 189.39568,532.66105 189.39569,533.27297 C 189.39568,533.88495 189.167,534.40948 188.70967,534.84656 C 188.26755,535.28369 187.72636,535.50225 187.08607,535.50222 C 186.44579,535.50225 185.89696,535.28369 185.43962,534.84656 C 184.98226,534.40948 184.7536,533.88495 184.7536,533.27297 C 184.7536,532.66105 184.97464,532.1438 185.41676,531.72123 C 185.87409,531.28416 186.43053,531.0656 187.08607,531.06557 M 188.98408,541.53432 L 188.98408,557.61992 C 188.98407,558.87297 189.07554,559.71076 189.25849,560.13329 C 189.45666,560.54126 189.7387,560.84724 190.10458,561.05122 C 190.48569,561.25521 191.17172,561.35721 192.16265,561.35721 L 192.16265,562.144 L 181.98664,562.144 L 181.98664,561.35721 C 183.00804,561.35721 183.69407,561.26249 184.0447,561.07308 C 184.39534,560.88366 184.66974,560.57041 184.86794,560.13329 C 185.08136,559.69619 185.18807,558.85839 185.18808,557.61992 L 185.18808,549.90495 C 185.18807,547.734 185.11948,546.32796 184.98228,545.68686 C 184.87556,545.22062 184.70785,544.90008 184.47919,544.72521 C 184.25051,544.53582 183.93799,544.44112 183.54163,544.4411 C 183.11476,544.44112 182.59643,544.55039 181.98664,544.76893 L 181.66649,543.98213 L 187.97791,541.53432 L 188.98408,541.53432 M 220.12955,553.94821 L 220.88417,554.1012 L 218.23155,562.144 L 194.22072,562.144 L 194.22072,561.33535 L 195.38696,561.33535 C 196.69803,561.33535 197.63559,560.92737 198.19966,560.11144 C 198.51979,559.64519 198.67987,558.56699 198.67988,556.87683 L 198.67988,537.75333 C 198.67987,535.90293 198.46644,534.7446 198.03959,534.27832 C 197.44503,533.63725 196.56082,533.31671 195.38696,533.31668 L 194.22072,533.31668 L 194.22072,532.50803 L 208.26133,532.50803 L 208.26133,533.31668 C 206.61487,533.30214 205.45625,533.44784 204.78548,533.75379 C 204.12994,534.05979 203.68022,534.4459 203.43631,534.91213 C 203.19238,535.37841 203.07042,536.49303 203.07043,538.25601 L 203.07043,556.87683 C 203.07042,558.08617 203.19238,558.91668 203.43631,559.36835 C 203.61923,559.67434 203.90126,559.90018 204.2824,560.04587 C 204.66351,560.19158 205.85262,560.26443 207.84972,560.26443 L 210.11361,560.26443 C 212.4918,560.26443 214.16112,560.09687 215.12158,559.76176 C 216.08199,559.42664 216.95856,558.83654 217.75134,557.99146 C 218.54405,557.13182 219.33679,555.78407 220.12955,553.94821 M 226.89831,549.66455 C 226.88306,552.63689 227.63769,554.96814 229.16219,556.65829 C 230.68668,558.34844 232.47796,559.19351 234.53604,559.19351 C 235.90808,559.19351 237.09719,558.83654 238.10336,558.1226 C 239.12476,557.39408 239.97847,556.15561 240.66452,554.40718 L 241.37341,554.84428 C 241.05325,556.84042 240.12331,558.6617 238.58358,560.30814 C 237.04382,561.94001 235.11533,562.75595 232.79812,562.75595 C 230.28269,562.75595 228.12552,561.82345 226.32663,559.95845 C 224.54296,558.07889 223.65113,555.55823 223.65113,552.39647 C 223.65113,548.97247 224.56583,546.3061 226.39523,544.39739 C 228.23986,542.47413 230.54948,541.51249 233.32407,541.51246 C 235.67178,541.51249 237.60026,542.25557 239.10953,543.74173 C 240.61876,545.21334 241.37339,547.18761 241.37341,549.66455 L 226.89831,549.66455 M 226.89831,548.39693 L 236.59412,548.39693 C 236.51787,547.11476 236.3578,546.2114 236.1139,545.68686 C 235.73276,544.87094 235.16107,544.22984 234.39884,543.76357 C 233.65182,543.29735 232.8667,543.06422 232.04349,543.0642 C 230.77815,543.06422 229.6424,543.53775 228.63624,544.48481 C 227.64531,545.41732 227.066,546.72136 226.89831,548.39693 M 256.00858,559.25908 C 253.85903,560.84724 252.50985,561.76517 251.96105,562.01287 C 251.1378,562.37712 250.26122,562.55925 249.33129,562.55925 C 247.88301,562.55925 246.68627,562.08572 245.74109,561.13865 C 244.81115,560.19158 244.34618,558.94582 244.34618,557.40137 C 244.34618,556.42516 244.57485,555.58009 245.0322,554.86614 C 245.65725,553.87537 246.73964,552.94286 248.27938,552.06865 C 249.83436,551.19444 252.41076,550.1308 256.00858,548.87775 L 256.00858,548.09095 C 256.00856,546.09484 255.67318,544.72523 255.00242,543.98213 C 254.34687,543.23907 253.38643,542.86753 252.12112,542.86751 C 251.16067,542.86753 250.39843,543.11522 249.83436,543.61059 C 249.25505,544.106 248.9654,544.67424 248.96541,545.31531 L 249.01114,546.58293 C 249.01113,547.25318 248.8282,547.77043 248.46232,548.13467 C 248.11168,548.49894 247.64671,548.68106 247.0674,548.68105 C 246.50334,548.68106 246.03837,548.49165 245.67249,548.11281 C 245.32185,547.734 245.14654,547.21675 245.14654,546.56107 C 245.14654,545.30804 245.81732,544.15699 247.15887,543.10791 C 248.50042,542.05888 250.38318,541.53434 252.80714,541.53432 C 254.66701,541.53434 256.19151,541.83304 257.38063,542.43039 C 258.28007,542.88209 258.94322,543.58876 259.3701,544.55037 C 259.64449,545.17691 259.78169,546.45909 259.78171,548.39693 L 259.78171,555.19397 C 259.78169,557.10268 259.8198,558.27559 259.89605,558.71269 C 259.97225,559.13524 260.09421,559.41935 260.26193,559.56506 C 260.44485,559.71076 260.65066,559.78362 260.87934,559.78361 C 261.12325,559.78362 261.33668,559.73261 261.51963,559.63062 C 261.83977,559.44121 262.45718,558.9094 263.3719,558.03518 L 263.3719,559.25908 C 261.66444,561.44462 260.03324,562.53739 258.47826,562.53739 C 257.73124,562.53739 257.13669,562.2897 256.69461,561.79431 C 256.25248,561.29892 256.02381,560.45384 256.00858,559.25908 M 256.00858,557.83847 L 256.00858,550.21093 C 253.70658,551.08516 252.22019,551.70439 251.54942,552.06865 C 250.34506,552.70974 249.48373,553.37998 248.96541,554.07934 C 248.44707,554.77872 248.18791,555.54366 248.18791,556.37416 C 248.18791,557.42323 248.51567,558.29745 249.17121,558.99682 C 249.82673,559.68162 250.58136,560.02402 251.43509,560.02402 C 252.59369,560.02402 254.11819,559.29551 256.00858,557.83847 M 271.10111,531.06557 L 271.10111,550.99773 L 276.42923,546.34252 C 277.55734,545.35176 278.21287,544.72523 278.39582,544.46296 C 278.51776,544.28813 278.57875,544.11328 278.57876,543.93842 C 278.57875,543.64703 278.44917,543.39934 278.19002,543.19533 C 277.94608,542.9768 277.53447,542.85295 276.95518,542.8238 L 276.95518,542.12442 L 286.05642,542.12442 L 286.05642,542.8238 C 284.80631,542.85295 283.76203,543.03508 282.92358,543.37018 C 282.10034,543.70532 281.19326,544.30269 280.20235,545.16233 L 274.8285,549.90495 L 280.20235,556.39602 C 281.69635,558.18817 282.70251,559.32465 283.22086,559.80547 C 283.9526,560.49027 284.59289,560.93467 285.14173,561.13865 C 285.52283,561.28435 286.18598,561.35721 287.13119,561.35721 L 287.13119,562.144 L 276.95518,562.144 L 276.95518,561.35721 C 277.53447,561.34263 277.92322,561.26249 278.12141,561.11679 C 278.33483,560.95652 278.44155,560.73796 278.44156,560.46113 C 278.44155,560.12602 278.13664,559.58691 277.52686,558.84383 L 271.10111,550.99773 L 271.10111,557.64177 C 271.1011,558.93854 271.19257,559.7909 271.37551,560.19886 C 271.5737,560.60683 271.8481,560.89824 272.19874,561.07308 C 272.54937,561.24793 273.31162,561.34263 274.48549,561.35721 L 274.48549,562.144 L 263.82926,562.144 L 263.82926,561.35721 C 264.8964,561.35721 265.69676,561.23335 266.23034,560.98566 C 266.55047,560.82539 266.7944,560.57769 266.9621,560.24257 C 267.19076,559.76176 267.3051,558.93125 267.30511,557.75105 L 267.30511,539.52362 C 267.3051,537.20697 267.25175,535.79366 267.14504,535.28368 C 267.03832,534.75917 266.863,534.40219 266.61908,534.21275 C 266.37516,534.0088 266.05502,533.9068 265.65865,533.90677 C 265.3385,533.9068 264.85829,534.03066 264.218,534.27832 L 263.82926,533.51338 L 270.0492,531.06557 L 271.10111,531.06557 M 301.85784,541.53432 L 301.85784,548.35322 L 301.10321,548.35322 C 300.52389,546.2114 299.77689,544.75437 298.8622,543.98213 C 297.96273,543.20993 296.81174,542.82382 295.40922,542.8238 C 294.34206,542.82382 293.48072,543.09337 292.82519,543.63245 C 292.16965,544.17157 291.84189,544.76894 291.84189,545.42459 C 291.84189,546.24055 292.08581,546.93992 292.57365,547.52272 C 293.04624,548.12011 294.00667,548.75391 295.45495,549.42413 L 298.7936,550.97587 C 301.88831,552.41834 303.43568,554.31976 303.43569,556.68014 C 303.43568,558.50143 302.71154,559.97303 301.26328,561.09494 C 299.83024,562.20228 298.2219,562.75595 296.43825,562.75595 C 295.15766,562.75595 293.69415,562.53739 292.0477,562.10029 C 291.54461,561.95458 291.13299,561.88173 290.81286,561.88173 C 290.46222,561.88173 290.18781,562.07114 289.98963,562.44997 L 289.235,562.44997 L 289.235,555.30324 L 289.98963,555.30324 C 290.41648,557.34309 291.23209,558.88025 292.43644,559.91474 C 293.64079,560.94923 294.98997,561.46647 296.48398,561.46647 C 297.53588,561.46647 298.38959,561.17507 299.04513,560.59226 C 299.7159,559.99488 300.05129,559.28093 300.05131,558.45042 C 300.05129,557.44509 299.67779,556.60001 298.93081,555.9152 C 298.19903,555.2304 296.7279,554.36347 294.51738,553.3144 C 292.30686,552.26535 290.85858,551.31828 290.17257,550.4732 C 289.48654,549.6427 289.14353,548.59364 289.14353,547.32601 C 289.14353,545.67959 289.73046,544.30269 290.90433,543.19533 C 292.09343,542.08802 293.62554,541.53434 295.50068,541.53432 C 296.32391,541.53434 297.32244,541.7019 298.49632,542.037 C 299.2738,542.25557 299.79213,542.36485 300.05131,542.36483 C 300.29521,542.36485 300.48577,542.31385 300.62299,542.21185 C 300.76018,542.10987 300.92026,541.88403 301.10321,541.53432 L 301.85784,541.53432" style="font-size: 49.3591px; font-style: normal; font-weight: normal; text-align: start; text-anchor: start; fill: rgb(255, 255, 255); fill-opacity: 1; fill-rule: evenodd; stroke: none; stroke-width: 0.2; stroke-linecap: butt; stroke-linejoin: miter; stroke-miterlimit: 4; stroke-opacity: 1; font-family: Thryomanes;" id="text3370"/>
  </g>
</svg>